<mxfile host="65bd71144e" modified="2020-11-09T13:37:52.321Z" agent="5.0 (Windows NT 10.0; Win64; x64) AppleWebKit/537.36 (KHTML, like Gecko) Code/1.51.0 Chrome/83.0.4103.122 Electron/9.3.3 Safari/537.36" version="13.6.5" etag="_p-ds7bA9OAaNoRKUnp2">
    <diagram id="sXHzWFeElIasydUg1uKf" name="Page-1">
        <mxGraphModel dx="1594" dy="700" grid="1" gridSize="10" guides="1" tooltips="1" connect="1" arrows="1" fold="1" page="1" pageScale="1" pageWidth="850" pageHeight="1100" math="0" shadow="0">
            <root>
                <mxCell id="0"/>
                <mxCell id="1" parent="0"/>
                <mxCell id="2" value="&lt;h1&gt;Music Upload - UploadMusic&lt;/h1&gt;&lt;p&gt;Aim of this is so that user can switch between anonymous and non anonymous mode for games/chat.&lt;/p&gt;&lt;p&gt;Clear indication must be shown if user/player is talking Anonymously or as him/herself&lt;/p&gt;" style="text;html=1;strokeColor=none;fillColor=none;spacing=5;spacingTop=-20;whiteSpace=wrap;overflow=hidden;rounded=0;" vertex="1" parent="1">
                    <mxGeometry x="50" y="40" width="750" height="120" as="geometry"/>
                </mxCell>
                <mxCell id="11" style="edgeStyle=orthogonalEdgeStyle;rounded=0;orthogonalLoop=1;jettySize=auto;html=1;" edge="1" parent="1" source="4">
                    <mxGeometry relative="1" as="geometry">
                        <mxPoint x="690" y="270" as="targetPoint"/>
                    </mxGeometry>
                </mxCell>
                <mxCell id="4" value="Upload Music" style="html=1;whiteSpace=wrap;container=1;recursiveResize=0;collapsible=0;" vertex="1" parent="1">
                    <mxGeometry x="270" y="160" width="240" height="70" as="geometry"/>
                </mxCell>
                <mxCell id="5" value="" style="html=1;aspect=fixed;strokeColor=none;shadow=0;align=center;verticalAlign=top;fillColor=#F4AF20;shape=mxgraph.gcp2.check" vertex="1" parent="4">
                    <mxGeometry x="190" y="30" width="37.5" height="30" as="geometry"/>
                </mxCell>
                <mxCell id="9" style="edgeStyle=orthogonalEdgeStyle;rounded=0;orthogonalLoop=1;jettySize=auto;html=1;entryX=0;entryY=0.414;entryDx=0;entryDy=0;entryPerimeter=0;" edge="1" parent="1" source="7" target="4">
                    <mxGeometry relative="1" as="geometry"/>
                </mxCell>
                <mxCell id="7" value="Store: Info&lt;br&gt;State:&amp;nbsp;music_genres&lt;br&gt;&lt;br&gt;Store: auth&lt;br&gt;State: main_user&lt;br&gt;&lt;br&gt;Store: business&lt;br&gt;State: main_business" style="rounded=1;whiteSpace=wrap;html=1;" vertex="1" parent="1">
                    <mxGeometry x="-10" y="270" width="280" height="140" as="geometry"/>
                </mxCell>
                <mxCell id="12" value="db: collection('songs')&lt;br&gt;&lt;br&gt;Info:&amp;nbsp;&lt;br&gt;audio&lt;br&gt;artist&lt;br&gt;title&lt;br&gt;album&lt;br&gt;display&lt;br&gt;cover&lt;br&gt;genre&lt;br&gt;b_uid&lt;br&gt;u_uid&lt;br&gt;r_uid" style="rounded=1;whiteSpace=wrap;html=1;" vertex="1" parent="1">
                    <mxGeometry x="530" y="270" width="280" height="200" as="geometry"/>
                </mxCell>
            </root>
        </mxGraphModel>
    </diagram>
</mxfile>